# xmcd
# 
# Track frame offsets:
#     150
#     20136
#     32679
#     47580
#     64578
#     69211
#     91046
#     103582
#     118357
#     142954
#     158389
# 
# Disc length: 2449
# 
# Revision: 0
# Processed by: cddbd v1.5.2PL0 Copyright (c) Steve Scherf et al.
# Submitted via: fre:ac v1.0.17
# 
DISCID=85098f0b
DTITLE=Oktay Kocamaz and his friends - Mona's Album
DYEAR=1981
DGENRE=Blues
TTITLE0=Dialog
TTITLE1=I Think I'm Gonna Write A Song
TTITLE2=Blues for Mona
TTITLE3=Don't Look Through My Eyes Part I
TTITLE4=Don't Look Through my Eyes Part II
TTITLE5=Goodbye
TTITLE6=The Warship
TTITLE7=The last Tram
TTITLE8=Tarmstedt - August 1978
TTITLE9=Never
TTITLE10=Baby Don't You Teach Me To Cry
EXTD=
EXTT0=
EXTT1=
EXTT2=
EXTT3=
EXTT4=
EXTT5=
EXTT6=
EXTT7=
EXTT8=
EXTT9=
EXTT10=
PLAYORDER=
